<mxfile host="app.diagrams.net" agent="Mozilla/5.0 (X11; Linux x86_64; rv:109.0) Gecko/20100101 Firefox/115.0" version="24.7.6">
  <diagram name="第 1 页" id="7KTaMBhgqVzbro8H5_XD">
    <mxGraphModel dx="15" dy="994" grid="1" gridSize="10" guides="1" tooltips="1" connect="1" arrows="1" fold="1" page="1" pageScale="1" pageWidth="850" pageHeight="1100" math="0" shadow="0">
      <root>
        <mxCell id="0" />
        <mxCell id="1" parent="0" />
        <mxCell id="JNSrJHHTEGONHWkqj-x3-96" style="edgeStyle=none;curved=1;rounded=0;orthogonalLoop=1;jettySize=auto;html=1;exitX=0.5;exitY=0;exitDx=0;exitDy=0;entryX=0.5;entryY=1;entryDx=0;entryDy=0;fontSize=12;startSize=8;endSize=8;endArrow=none;endFill=0;" edge="1" parent="1" source="JNSrJHHTEGONHWkqj-x3-44" target="JNSrJHHTEGONHWkqj-x3-57">
          <mxGeometry relative="1" as="geometry" />
        </mxCell>
        <mxCell id="JNSrJHHTEGONHWkqj-x3-98" value="" style="edgeStyle=none;curved=1;rounded=0;orthogonalLoop=1;jettySize=auto;html=1;fontSize=12;startSize=8;endSize=8;endArrow=none;endFill=0;" edge="1" parent="1" source="JNSrJHHTEGONHWkqj-x3-44" target="JNSrJHHTEGONHWkqj-x3-90">
          <mxGeometry relative="1" as="geometry" />
        </mxCell>
        <mxCell id="JNSrJHHTEGONHWkqj-x3-102" style="edgeStyle=none;curved=1;rounded=0;orthogonalLoop=1;jettySize=auto;html=1;exitX=1;exitY=0.5;exitDx=0;exitDy=0;entryX=0;entryY=0.5;entryDx=0;entryDy=0;fontSize=12;startSize=8;endSize=8;endArrow=none;endFill=0;dashed=1;" edge="1" parent="1" source="JNSrJHHTEGONHWkqj-x3-44" target="JNSrJHHTEGONHWkqj-x3-54">
          <mxGeometry relative="1" as="geometry" />
        </mxCell>
        <mxCell id="JNSrJHHTEGONHWkqj-x3-104" value="ssd" style="edgeLabel;html=1;align=center;verticalAlign=middle;resizable=0;points=[];fontSize=12;" vertex="1" connectable="0" parent="JNSrJHHTEGONHWkqj-x3-102">
          <mxGeometry x="0.3092" y="-1" relative="1" as="geometry">
            <mxPoint as="offset" />
          </mxGeometry>
        </mxCell>
        <mxCell id="JNSrJHHTEGONHWkqj-x3-106" style="edgeStyle=none;curved=1;rounded=0;orthogonalLoop=1;jettySize=auto;html=1;exitX=1;exitY=0.5;exitDx=0;exitDy=0;entryX=0;entryY=0.5;entryDx=0;entryDy=0;fontSize=12;startSize=8;endSize=8;endArrow=none;endFill=0;" edge="1" parent="1" source="JNSrJHHTEGONHWkqj-x3-44" target="JNSrJHHTEGONHWkqj-x3-56">
          <mxGeometry relative="1" as="geometry" />
        </mxCell>
        <mxCell id="JNSrJHHTEGONHWkqj-x3-44" value="Resources" style="html=1;whiteSpace=wrap;" vertex="1" parent="1">
          <mxGeometry x="920" y="440" width="110" height="50" as="geometry" />
        </mxCell>
        <mxCell id="JNSrJHHTEGONHWkqj-x3-53" value="&lt;div&gt;Job&lt;/div&gt;&lt;div&gt;运行实例&lt;br&gt;&lt;/div&gt;" style="html=1;whiteSpace=wrap;fillColor=#dae8fc;strokeColor=#6c8ebf;" vertex="1" parent="1">
          <mxGeometry x="1560" y="280" width="110" height="50" as="geometry" />
        </mxCell>
        <mxCell id="JNSrJHHTEGONHWkqj-x3-63" value="" style="edgeStyle=orthogonalEdgeStyle;rounded=0;orthogonalLoop=1;jettySize=auto;html=1;fontSize=12;startSize=8;endSize=8;endArrow=none;endFill=0;strokeColor=none;" edge="1" parent="1" source="JNSrJHHTEGONHWkqj-x3-54" target="JNSrJHHTEGONHWkqj-x3-53">
          <mxGeometry relative="1" as="geometry" />
        </mxCell>
        <mxCell id="JNSrJHHTEGONHWkqj-x3-95" style="edgeStyle=none;curved=1;rounded=0;orthogonalLoop=1;jettySize=auto;html=1;exitX=1;exitY=0.5;exitDx=0;exitDy=0;entryX=0;entryY=0.5;entryDx=0;entryDy=0;fontSize=12;startSize=8;endSize=8;endArrow=none;endFill=0;" edge="1" parent="1" source="JNSrJHHTEGONHWkqj-x3-54" target="JNSrJHHTEGONHWkqj-x3-53">
          <mxGeometry relative="1" as="geometry" />
        </mxCell>
        <mxCell id="JNSrJHHTEGONHWkqj-x3-100" style="edgeStyle=none;curved=1;rounded=0;orthogonalLoop=1;jettySize=auto;html=1;exitX=0;exitY=0.5;exitDx=0;exitDy=0;entryX=1;entryY=0.5;entryDx=0;entryDy=0;fontSize=12;startSize=8;endSize=8;endArrow=none;endFill=0;" edge="1" parent="1" source="JNSrJHHTEGONHWkqj-x3-54" target="JNSrJHHTEGONHWkqj-x3-90">
          <mxGeometry relative="1" as="geometry" />
        </mxCell>
        <mxCell id="JNSrJHHTEGONHWkqj-x3-54" value="&lt;div&gt;JobCfg&lt;/div&gt;&lt;div&gt;文件管理&lt;/div&gt;&lt;div&gt;data管理?&lt;br&gt;&lt;/div&gt;" style="html=1;whiteSpace=wrap;" vertex="1" parent="1">
          <mxGeometry x="1240" y="598.85" width="110" height="50" as="geometry" />
        </mxCell>
        <mxCell id="JNSrJHHTEGONHWkqj-x3-60" value="" style="edgeStyle=orthogonalEdgeStyle;rounded=0;orthogonalLoop=1;jettySize=auto;html=1;fontSize=12;startSize=8;endSize=8;endArrow=block;endFill=0;" edge="1" parent="1" source="JNSrJHHTEGONHWkqj-x3-55" target="JNSrJHHTEGONHWkqj-x3-54">
          <mxGeometry relative="1" as="geometry" />
        </mxCell>
        <mxCell id="JNSrJHHTEGONHWkqj-x3-55" value="&lt;div&gt;Jid&lt;/div&gt;" style="html=1;whiteSpace=wrap;" vertex="1" parent="1">
          <mxGeometry x="1240" y="698.85" width="110" height="50" as="geometry" />
        </mxCell>
        <mxCell id="JNSrJHHTEGONHWkqj-x3-89" value="" style="edgeStyle=none;curved=1;rounded=0;orthogonalLoop=1;jettySize=auto;html=1;fontSize=12;startSize=8;endSize=8;endArrow=none;endFill=0;" edge="1" parent="1" source="JNSrJHHTEGONHWkqj-x3-56" target="JNSrJHHTEGONHWkqj-x3-53">
          <mxGeometry relative="1" as="geometry" />
        </mxCell>
        <mxCell id="JNSrJHHTEGONHWkqj-x3-99" style="edgeStyle=none;curved=1;rounded=0;orthogonalLoop=1;jettySize=auto;html=1;exitX=0;exitY=0.5;exitDx=0;exitDy=0;entryX=1;entryY=0.5;entryDx=0;entryDy=0;fontSize=12;startSize=8;endSize=8;endArrow=none;endFill=0;" edge="1" parent="1" source="JNSrJHHTEGONHWkqj-x3-56" target="JNSrJHHTEGONHWkqj-x3-90">
          <mxGeometry relative="1" as="geometry" />
        </mxCell>
        <mxCell id="JNSrJHHTEGONHWkqj-x3-56" value="&lt;div&gt;Proc&lt;/div&gt;运行态信息" style="html=1;whiteSpace=wrap;" vertex="1" parent="1">
          <mxGeometry x="1240" y="280" width="110" height="50" as="geometry" />
        </mxCell>
        <mxCell id="JNSrJHHTEGONHWkqj-x3-64" style="edgeStyle=orthogonalEdgeStyle;rounded=0;orthogonalLoop=1;jettySize=auto;html=1;entryX=0;entryY=0.5;entryDx=0;entryDy=0;fontSize=12;startSize=8;endSize=8;endArrow=none;endFill=0;" edge="1" parent="1" source="JNSrJHHTEGONHWkqj-x3-57" target="JNSrJHHTEGONHWkqj-x3-56">
          <mxGeometry relative="1" as="geometry" />
        </mxCell>
        <mxCell id="JNSrJHHTEGONHWkqj-x3-93" style="edgeStyle=none;curved=1;rounded=0;orthogonalLoop=1;jettySize=auto;html=1;exitX=1;exitY=0.5;exitDx=0;exitDy=0;entryX=0;entryY=0.5;entryDx=0;entryDy=0;fontSize=12;startSize=8;endSize=8;endArrow=none;endFill=0;" edge="1" parent="1" source="JNSrJHHTEGONHWkqj-x3-57" target="JNSrJHHTEGONHWkqj-x3-54">
          <mxGeometry relative="1" as="geometry" />
        </mxCell>
        <mxCell id="JNSrJHHTEGONHWkqj-x3-57" value="&lt;div&gt;Scheduler&lt;/div&gt;" style="html=1;whiteSpace=wrap;fillColor=#dae8fc;strokeColor=#6c8ebf;" vertex="1" parent="1">
          <mxGeometry x="920" y="280" width="110" height="50" as="geometry" />
        </mxCell>
        <mxCell id="JNSrJHHTEGONHWkqj-x3-90" value="Monitor" style="html=1;whiteSpace=wrap;fillColor=#dae8fc;strokeColor=#6c8ebf;" vertex="1" parent="1">
          <mxGeometry x="920" y="598.85" width="110" height="50" as="geometry" />
        </mxCell>
        <mxCell id="JNSrJHHTEGONHWkqj-x3-105" value="&lt;font style=&quot;font-size: 13px;&quot;&gt;n&lt;/font&gt;" style="text;html=1;align=center;verticalAlign=middle;resizable=0;points=[];autosize=1;strokeColor=none;fillColor=none;fontSize=16;" vertex="1" parent="1">
          <mxGeometry x="1203" y="280" width="30" height="30" as="geometry" />
        </mxCell>
      </root>
    </mxGraphModel>
  </diagram>
</mxfile>
